<svg id="Layer_1" enable-background="new 0 0 511.952 511.952" height="512" viewBox="0 0 511.952 511.952" width="512" xmlns="http://www.w3.org/2000/svg"><g><g><path d="m255.976 0c-141.372 0-255.976 114.604-255.976 255.976l385.165 221.012c75.843-44.429 126.787-126.766 126.787-221.012 0-141.372-114.605-255.976-255.976-255.976z" fill="#d5f1fe"/></g><g><g><g><path d="m437.642 270.241c-7.399 0-13.397 5.998-13.397 13.397v60.607h-45.511c-6.658 0-13.134-2.159-18.45-6.166-5.808-4.378-13.24-9.473-19.046-13.293-5.292-3.482-9.417-8.492-11.708-14.398-.036-.092-.071-.183-.107-.275-4.137-10.517-2.152-22.414 5.108-31.075 11.99-14.303 19.213-32.734 19.213-52.859 0-5.555 3.283-10.51 8.298-12.899 6.516-3.104 11.019-9.751 11.019-17.45v-10.337c0-7.699-4.503-14.345-11.019-17.45-5.015-2.389-8.298-7.345-8.298-12.899v-56.417c0-20.492-16.612-37.105-37.104-37.105h-91.386c-20.492 0-37.104 16.612-37.104 37.105v59.796.002 66.838c0 19.602 6.771 37.59 18.079 51.787 8.35 10.484 7.71 25.508-1.483 35.262-7.851 8.33-16.595 17.48-22.972 24.046-4.838 4.981-11.488 7.786-18.432 7.786h-.525c-14.89 0-26.966-12.071-26.966-26.961v-33.646c0-7.399-5.998-13.397-13.397-13.397s-13.397 5.998-13.397 13.397c0 9.338-12.685 12.251-16.706 3.823-7.033-14.744-12.581-30.05-16.631-45.686-11.246-43.413-74.698-36.225-75.659 8.61-.03 1.417-.049 2.836-.056 4.258-.445 87.362 43.11 164.802 109.784 211.35l275.374 10.994c8.646-5.067 16.97-10.623 24.93-16.637h.007c.057-.043.115-.084.171-.127v-.008c9.922-7.509 19.28-15.723 28-24.569 10.608-10.761-1.368-28.176-15.289-22.298-.256.108-.512.216-.769.323-7.566 3.165-16.174-1.036-18.473-8.909-.047-.16-.094-.319-.141-.479-4.909-16.609 7.668-33.245 24.988-33.245h1.771c11.423 0 20.684-9.26 20.684-20.684v-66.717c-.003-7.396-6.001-13.395-13.4-13.395z" fill="#93dcfc"/></g><g><g><path d="m374.503 29.055h-10.864c-7.399 0-13.397 5.998-13.397 13.397 0 7.399 5.998 13.397 13.397 13.397h51.929c-12.751-10.181-26.495-19.167-41.065-26.794z" fill="#93dcfc"/></g><g><path d="m451.039 90.243c-8.25-9.7-17.204-18.781-26.794-27.154v53.368c0 7.399 5.998 13.397 13.397 13.397 7.399 0 13.397-5.998 13.397-13.397z" fill="#93dcfc"/></g></g><g><path d="m122.453 129.853c7.399 0 13.397-5.998 13.397-13.397v-60.607h60.607c7.399 0 13.397-5.998 13.397-13.397 0-7.399-5.998-13.397-13.397-13.397h-59.008c-9.86 5.16-19.342 10.941-28.393 17.297v70.104c0 7.399 5.998 13.397 13.397 13.397z" fill="#93dcfc"/></g></g><g><path d="m168.83 185.493v10.337c0 10.669 8.649 19.318 19.317 19.318v-48.972c-10.668 0-19.317 8.648-19.317 19.317z" fill="#323b49"/></g></g><g><g><g><path d="m347.424 356.816c-7.675-7.732-15.847-14.313-25.42-20.264.001-.007.001-.014.001-.021-.107-.067-2.456-1.49-2.566-1.555v.021c-20.712-12.253-44.862-19.307-70.67-19.307-14.928 0-29.296 2.375-42.771 6.735-2.09 3.109-30.429 33.774-35.747 39.461v135.34c26.803 9.524 55.654 14.726 85.724 14.726 48.341 0 93.548-13.406 132.118-36.695v-6.86c.721-20.876-1.59-72.278-40.669-111.628z" fill="#e04955"/></g><g><path d="m248.769 315.689c-25.469 0-49.326 6.866-69.855 18.821v-.016c-.112.065-1.949 1.151-2.076 1.227v.026c-40.158 24.334-67.103 68.447-67.103 118.976v11.347c29.77 20.761 64.15 35.366 101.307 41.946-33.696-29.018-44.166-79.143-20.715-119.657 10.074-17.403 24.832-33.625 46.389-45.183v-.026c.127-.077 1.964-1.162 2.076-1.227v.016c16.94-9.865 36.151-16.253 56.659-18.189-14.591-5.21-30.3-8.061-46.682-8.061z" fill="#c40955"/></g><g><g><g><path d="m248.769 291.161c-34.71 0-62.849 28.138-62.849 62.849 0 23.103 12.475 43.282 31.047 54.203l32.168-32.168 31.9 31.9c18.317-10.982 30.581-31.023 30.581-53.935.002-34.711-28.137-62.849-62.847-62.849z" fill="#c40955"/></g></g></g><g><g><g><path d="m248.769 281.084c-34.71 0-62.849 28.138-62.849 62.849 0 23.103 12.475 43.282 31.047 54.203l32.168-32.168 31.9 31.9c18.317-10.982 30.581-31.024 30.581-53.935.002-34.711-28.137-62.849-62.847-62.849z" fill="#fff"/></g></g></g><g><g><g><g><g><path d="m251.12 364.714h-3.886c-14.954 0-27.077-12.123-27.077-27.077v-66.944h58.041v66.944c-.001 14.954-12.124 27.077-27.078 27.077z" fill="#e7955e"/></g></g></g></g></g><g><g><g><g><g><path d="m327.902 168.873c0-26.484-16.99-50.701-43.473-50.701h-70.504c-9.746 0-18.435 3.288-25.532 8.753v141.213c0 20.603 12.82 39.071 32.166 46.16 8.923 3.27 18.562 5.055 28.619 5.055 45.503 0 82.39-36.887 82.39-82.39v-26.011z" fill="#eebd84"/></g></g></g></g></g><g><g><g><path d="m165.972 168.873v67.276c0 35.703 22.46 66.058 53.896 77.897 5.869 2.21 10.225-5.634 5.314-9.534-19.191-15.241-31.498-38.776-31.498-65.187v-124.89l-16.453 23.579c-7.022 8.34-11.259 19.102-11.259 30.859z" fill="#e7955e"/></g></g></g><g><g><g><g><g><path d="m332.86 225.932h-1.293v-48.972h1.293c9.954 0 18.024 8.07 18.024 18.024v12.924c0 9.955-8.07 18.024-18.024 18.024z" fill="#e7955e"/></g></g></g></g></g><g><g><g><g><g><path d="m164.678 225.932h1.293v-48.972h-1.293c-9.954 0-18.024 8.07-18.024 18.024v12.924c0 9.955 8.07 18.024 18.024 18.024z" fill="#e7955e"/></g></g></g></g></g><g><g><g><g><g><path d="m220.441 218.848c-3.79 0-6.862-3.073-6.862-6.862v-18.767c0-3.79 3.073-6.862 6.862-6.862s6.862 3.073 6.862 6.862v18.767c0 3.789-3.073 6.862-6.862 6.862z" fill="#e7955e"/></g></g></g></g></g><g><g><g><g><g><path d="m276.481 218.848c-3.79 0-6.862-3.073-6.862-6.862v-18.767c0-3.79 3.073-6.862 6.862-6.862 3.79 0 6.862 3.073 6.862 6.862v18.767c0 3.789-3.072 6.862-6.862 6.862z" fill="#e7955e"/></g></g></g></g></g><g><g><g><g><g><path d="m220.441 213.351c-3.79 0-6.862-3.073-6.862-6.862v-18.767c0-3.79 3.073-6.862 6.862-6.862s6.862 3.073 6.862 6.862v18.767c0 3.79-3.073 6.862-6.862 6.862z" fill="#1b1e21"/></g></g></g></g></g><g><g><g><g><g><path d="m276.481 213.351c-3.79 0-6.862-3.073-6.862-6.862v-18.767c0-3.79 3.073-6.862 6.862-6.862 3.79 0 6.862 3.073 6.862 6.862v18.767c0 3.79-3.072 6.862-6.862 6.862z" fill="#1b1e21"/></g></g></g></g></g><g><g><g><g><g><g><path d="m229.481 177.429h-20.011c-3.79 0-6.862-3.072-6.862-6.862 0-3.79 3.072-6.862 6.862-6.862h20.012c3.79 0 6.862 3.072 6.862 6.862 0 3.789-3.073 6.862-6.863 6.862z" fill="#475770"/></g></g></g></g></g></g><g><g><g><g><g><g><path d="m286.666 177.429h-20.012c-3.79 0-6.862-3.072-6.862-6.862 0-3.79 3.072-6.862 6.862-6.862h20.012c3.79 0 6.862 3.072 6.862 6.862 0 3.789-3.073 6.862-6.862 6.862z" fill="#475770"/></g></g></g></g></g></g><g><g><g><path d="m274.444 251.314h-50.534c-2.097 0-3.772 1.83-3.492 3.908.535 3.976 1.875 7.696 3.851 10.992l37.679 11.166c8.51-4.177 14.674-12.399 15.988-22.158.28-2.078-1.396-3.908-3.492-3.908z" fill="#c40955"/></g></g></g><g><g><g><g><g><path d="m238.058 223.093c-1.706 6.812 1.394 14.232 7.323 16.469 1.193.45 2.469.694 3.796.694 1.326 0 2.603-.244 3.796-.694 5.929-2.237 9.029-9.657 7.323-16.469l-5.655-22.582c-1.424-5.685-9.503-5.685-10.927 0z" fill="#e7955e"/></g></g></g></g></g><g><g><g><path d="m291.43 129.506c2.536-4.608 8.305-6.366 13.06-4.12.071.033.141.067.212.101 5.16 2.469 9.284 6.43 12.033 11.208h5.779c4.999 0 9.052-4.053 9.052-9.052v-18.13c0-20.492-16.612-37.104-37.104-37.104h-91.386c-6.158.009-11.197 5.055-11.197 11.213v42.644c.618-.334 1.243-.662 1.902-.953 8.053-3.555 16.422 4.313 13.748 12.7-.013.042-.027.084-.04.126-1.861 5.907 2.565 11.92 8.758 11.92h40.438c29.858-.002 33.059-17.49 34.745-20.553z" fill="#323b49"/></g></g></g><g><g><g><g><path d="m193.453 109.512c0-20.492 16.612-37.104 37.104-37.104h-27.482c-20.492 0-37.104 16.612-37.104 37.104v59.796.002 41.643c6.095 0 11.035-4.941 11.035-11.035v-48.728c0-10.763 6.057-20.683 15.736-25.391.237-.115.474-.228.711-.338z" fill="#1b1e21"/></g></g></g><g><g><g><path d="m318.807 129.695c-.981 1.759-2.106 3.424-3.334 5.005 3.234 4.676 5.058 10.325 5.058 16.223v48.994c0 6.095 4.941 11.035 11.035 11.035v-42.08-43.655c-4.717-1.977-10.245-.032-12.759 4.478z" fill="#1b1e21"/></g></g></g><g><g><g><path d="m243.731 150.057c-6.179 0-10.622-5.994-8.77-11.889.033-.104.066-.209.1-.313 2.736-8.457-6.043-16.153-14.103-12.406-.244.113-.488.23-.733.349-5.768 2.806-10.235 7.471-12.915 13.054-1.319 5.665 3 11.205 8.94 11.205h40.436.001z" fill="#475770"/></g></g></g></g><g><g><g><path d="m216.278 200.192h-.339c-1.304 0-2.36-1.057-2.36-2.36v-8c0-1.304 1.057-2.36 2.36-2.36h.339c1.304 0 2.36 1.057 2.36 2.36v8c0 1.303-1.057 2.36-2.36 2.36z" fill="#fff"/></g></g></g><g><g><g><path d="m272.19 200.192h-.339c-1.304 0-2.36-1.057-2.36-2.36v-8c0-1.304 1.057-2.36 2.36-2.36h.339c1.304 0 2.36 1.057 2.36 2.36v8c0 1.303-1.057 2.36-2.36 2.36z" fill="#fff"/></g></g></g><g><g><g><path d="m224.272 266.212c5.071 8.459 14.325 14.122 24.905 14.122 4.583 0 8.916-1.066 12.769-2.958-1.657-10.392-10.657-18.336-21.516-18.336-6.409.001-12.171 2.768-16.158 7.172z" fill="#e04955"/></g></g></g><g><g><g><path d="m262.773 259.041h-28.008c-2.543 0-4.605-2.062-4.605-4.605v-3.122h37.218v3.122c0 2.543-2.062 4.605-4.605 4.605z" fill="#fff"/></g></g></g></g><g><g><g><path d="m428.863 140.638h-26.794v-74.004h-74.004v-26.794h100.798z" fill="#475770"/></g></g><g><g><path d="m113.673 140.638h-26.794v-100.798h100.798v26.794h-74.004z" fill="#475770"/></g></g><g><g><path d="m187.677 381.824h-100.798v-100.798h26.794v74.004h74.004z" fill="#475770"/></g></g><g><g><path d="m428.863 381.824h-100.798v-26.794h74.004v-74.004h26.794z" fill="#475770"/></g></g></g></g></g></svg>