<?xml version="1.0" encoding="utf-8"?><svg version="1.1" id="Layer_1" xmlns="http://www.w3.org/2000/svg" xmlns:xlink="http://www.w3.org/1999/xlink" x="0px" y="0px" viewBox="0 0 30.28 30.88" style="enable-background:new 0 0 100.28 100.88" xml:space="preserve"><g><path d="M41.73,0c2.16,0,3.91,1.75,3.91,3.91s-1.75,3.91-3.91,3.91H7.82v33.31c0,2.16-1.75,3.91-3.91,3.91 C1.75,45.04,0,43.29,0,41.13V3.91C0,1.75,1.75,0,3.91,0H41.73L41.73,0z M33.44,71.55c2.28-3.27,5.4-5.54,9.96-6.07h33.93 c5.27,0.96,8.98,3.87,11.52,8.25v20.41H33.44V71.55L33.44,71.55z M60.67,28.75c8.94,0,16.19,7.25,16.19,16.19 c0,8.94-7.25,16.19-16.19,16.19s-16.19-7.25-16.19-16.19C44.49,35.99,51.73,28.75,60.67,28.75L60.67,28.75z M80.55,7.82 c-2.16,0-3.91-1.75-3.91-3.91S78.39,0,80.55,0h37.82c2.16,0,3.91,1.75,3.91,3.91v37.22c0,2.16-1.75,3.91-3.91,3.91 c-2.16,0-3.91-1.75-3.91-3.91V7.82H80.55L80.55,7.82z M80.55,122.88c-2.16,0-3.91-1.75-3.91-3.91c0-2.16,1.75-3.91,3.91-3.91h33.91 V81.75c0-2.16,1.75-3.91,3.91-3.91c2.16,0,3.91,1.75,3.91,3.91v37.22c0,2.16-1.75,3.91-3.91,3.91H80.55L80.55,122.88z M41.73,115.06c2.16,0,3.91,1.75,3.91,3.91c0,2.16-1.75,3.91-3.91,3.91H3.91c-2.16,0-3.91-1.75-3.91-3.91V81.75 c0-2.16,1.75-3.91,3.91-3.91c2.16,0,3.91,1.75,3.91,3.91v33.31H41.73L41.73,115.06z"/></g></svg>